<svg id="svgPreview" viewBox="0 0 2880 1800" xmlns="http://www.w3.org/2000/svg" width="2880" height="1800" style=""><defs><linearGradient id="bg-gradient" x1="0.6545084971874737" y1="0.9755282581475768" x2="0.3454915028125263" y2="0.024471741852423234"><stop offset="0%" stop-color="#004d40"/><stop offset="100%" stop-color="#00897b"/></linearGradient><filter id="shadow" x="-20%" y="-20%" width="140%" height="140%"><feDropShadow dx="3" dy="3" stdDeviation="5" flood-color="rgba(0, 0, 0, 0.5)"/></filter></defs><rect width="100%" height="100%" fill="url(#bg-gradient)"/><circle cx="373.7191577758693" cy="1075.6953765712965" r="44.71088466721752" fill="hsla(331.56689848929227, 70%, 80%, 0.12490977622961238)" opacity="0.12490977622961238" filter="blur(3.134536253778947px)" transform="rotate(40.16268990525025, 373.7191577758693, 1075.6953765712965)"/><ellipse cx="282.63895856053927" cy="376.9213444514898" rx="137.7771976027812" ry="68.8885988013906" fill="hsla(119.76301534071915, 70%, 80%, 0.21978929257930566)" opacity="0.21978929257930566" filter="blur(48.34558310392023px)" transform="rotate(104.97950989780746, 282.63895856053927, 376.9213444514898)"/><rect x="791.8748762650671" y="1440.196899533692" width="135.36274457146249" height="135.36274457146249" rx="33.84068614286562" fill="hsla(87.34135523419566, 70%, 80%, 0.38913228247350484)" opacity="0.38913228247350484" filter="blur(11.06268462956158px)" transform="rotate(244.54297585679492, 859.5562485507983, 1507.8782718194232)"/><rect x="1442.910587413327" y="332.9918410902016" width="54.61904453273505" height="54.61904453273505" rx="13.654761133183763" fill="hsla(312.2659421622683, 70%, 80%, 0.2271940592237231)" opacity="0.2271940592237231" filter="blur(43.250640850133124px)" transform="rotate(188.5280320402726, 1470.2201096796946, 360.30136335656914)"/><rect x="1122.6910888543682" y="1653.206854432041" width="121.07627387512387" height="121.07627387512387" rx="30.26906846878097" fill="hsla(141.95981046528482, 70%, 80%, 0.3556237879922316)" opacity="0.3556237879922316" filter="blur(14.529575714643562px)" transform="rotate(35.353703635148136, 1183.22922579193, 1713.7449913696028)"/><ellipse cx="2380.0207299896356" cy="256.3851798630758" rx="88.0658177416148" ry="44.0329088708074" fill="hsla(118.34554797594207, 70%, 80%, 0.2471375395430428)" opacity="0.2471375395430428" filter="blur(39.39224110716425px)" transform="rotate(134.9252311620385, 2380.0207299896356, 256.3851798630758)"/><ellipse cx="1340.8372821430783" cy="829.5402065050439" rx="52.47206651261421" ry="26.236033256307106" fill="hsla(351.60025528166926, 70%, 80%, 0.29398565147372074)" opacity="0.29398565147372074" filter="blur(16.77162146470122px)" transform="rotate(182.9265060749078, 1340.8372821430783, 829.5402065050439)"/><ellipse cx="2271.5351305389127" cy="829.9004930537747" rx="55.63507778262243" ry="27.817538891311216" fill="hsla(224.79685164625874, 70%, 80%, 0.2862939525465726)" opacity="0.2862939525465726" filter="blur(33.28777757673631px)" transform="rotate(284.53036297810183, 2271.5351305389127, 829.9004930537747)"/><rect x="1818.84939835032" y="1081.5801737618185" width="29.801985170246102" height="29.801985170246102" rx="7.4504962925615255" fill="hsla(42.654719531703876, 70%, 80%, 0.24557114934309002)" opacity="0.24557114934309002" filter="blur(4.832191683943366px)" transform="rotate(13.0755121585935, 1833.750390935443, 1096.4811663469416)"/><ellipse cx="1049.2547984548564" cy="284.33738171473345" rx="110.2296412181831" ry="55.11482060909155" fill="hsla(332.3707490946745, 70%, 80%, 0.2764827901077278)" opacity="0.2764827901077278" filter="blur(37.51168135578266px)" transform="rotate(292.1584210665451, 1049.2547984548564, 284.33738171473345)"/><circle cx="2244.928884856685" cy="483.3522236777308" r="62.441932973219906" fill="hsla(322.28661684742497, 70%, 80%, 0.2410726998936908)" opacity="0.2410726998936908" filter="blur(44.80804718717836px)" transform="rotate(317.8442682853747, 2244.928884856685, 483.3522236777308)"/><rect x="1963.5160521622663" y="468.8792191602265" width="145.70607046690765" height="145.70607046690765" rx="36.42651761672691" fill="hsla(149.9541622934479, 70%, 80%, 0.2952578456118941)" opacity="0.2952578456118941" filter="blur(18.21566252660668px)" transform="rotate(328.0530310728655, 2036.36908739572, 541.7322543936804)"/><ellipse cx="1745.050085741786" cy="563.3616912323532" rx="77.96679576706917" ry="38.983397883534586" fill="hsla(132.18122331636627, 70%, 80%, 0.27115091907752836)" opacity="0.27115091907752836" filter="blur(42.459628919112866px)" transform="rotate(84.33931923174212, 1745.050085741786, 563.3616912323532)"/><rect x="2793.505174238378" y="221.8386157622355" width="30.941144684700266" height="30.941144684700266" rx="7.7352861711750664" fill="hsla(220.53528048366863, 70%, 80%, 0.3427923533243924)" opacity="0.3427923533243924" filter="blur(47.67172189988959px)" transform="rotate(196.4353052233196, 2808.9757465807284, 237.30918810458562)"/><rect x="1351.5218314801573" y="1486.5061455027771" width="84.71383126151129" height="84.71383126151129" rx="21.178457815377822" fill="hsla(75.76937246482632, 70%, 80%, 0.30725821373952344)" opacity="0.30725821373952344" filter="blur(17.669309011444838px)" transform="rotate(76.75780717724265, 1393.8787471109129, 1528.8630611335327)"/><rect x="2560.5271128423446" y="184.43614033532293" width="94.64302219015835" height="94.64302219015835" rx="23.660755547539587" fill="hsla(317.8198434086098, 70%, 80%, 0.1056812678745494)" opacity="0.1056812678745494" filter="blur(18.279017402858162px)" transform="rotate(33.01669845056781, 2607.848623937424, 231.75765143040212)"/><circle cx="996.9178845058894" cy="1668.0109549127574" r="39.93226711454352" fill="hsla(234.2618033584066, 70%, 80%, 0.1476581930828504)" opacity="0.1476581930828504" filter="blur(2.80519434807876px)" transform="rotate(57.51725088193486, 996.9178845058894, 1668.0109549127574)"/><circle cx="2796.4525653858386" cy="149.51476420863764" r="47.59549387028288" fill="hsla(70.27768098748017, 70%, 80%, 0.12963465602044316)" opacity="0.12963465602044316" filter="blur(15.814580838107133px)" transform="rotate(160.25411608347568, 2796.4525653858386, 149.51476420863764)"/><rect x="939.3058879970164" y="1261.9059699166517" width="57.16697115701386" height="57.16697115701386" rx="14.291742789253465" fill="hsla(7.402363518076931, 70%, 80%, 0.3186473035080042)" opacity="0.3186473035080042" filter="blur(15.189616906591846px)" transform="rotate(23.440161224190042, 967.8893735755233, 1290.4894554951586)"/><rect x="2466.0072785017455" y="1526.4295507709078" width="116.52750832695308" height="116.52750832695308" rx="29.13187708173827" fill="hsla(277.31657849027783, 70%, 80%, 0.12860715195116018)" opacity="0.12860715195116018" filter="blur(46.56990971957991px)" transform="rotate(266.8568931454665, 2524.2710326652223, 1584.6933049343843)"/><ellipse cx="1805.4379912383429" cy="1075.6315655934648" rx="115.88730790004061" ry="57.943653950020305" fill="hsla(120.4869393662977, 70%, 80%, 0.32719607215803603)" opacity="0.32719607215803603" filter="blur(36.96698332361529px)" transform="rotate(73.89878035447526, 1805.4379912383429, 1075.6315655934648)"/><ellipse cx="1976.009615771877" cy="893.6126493148204" rx="103.81520767077643" ry="51.907603835388215" fill="hsla(217.33515391321365, 70%, 80%, 0.32489604470219025)" opacity="0.32489604470219025" filter="blur(2.9005800701569937px)" transform="rotate(229.84981872889955, 1976.009615771877, 893.6126493148204)"/><circle cx="2757.9004423017277" cy="806.2505967307558" r="65.71524392226644" fill="hsla(260.55370562222123, 70%, 80%, 0.2587883727133825)" opacity="0.2587883727133825" filter="blur(40.361624939355664px)" transform="rotate(14.583236795394306, 2757.9004423017277, 806.2505967307558)"/><ellipse cx="2706.6387220129013" cy="1387.902067177417" rx="86.45143358602704" ry="43.22571679301352" fill="hsla(175.48656477725177, 70%, 80%, 0.15769291814190173)" opacity="0.15769291814190173" filter="blur(14.352938689961025px)" transform="rotate(140.33450839403338, 2706.6387220129013, 1387.902067177417)"/><circle cx="801.8554160445398" cy="1124.2065605843056" r="21.41012844259069" fill="hsla(115.00779835937361, 70%, 80%, 0.25756834115851834)" opacity="0.25756834115851834" filter="blur(22.924302514466454px)" transform="rotate(7.275506101807361, 801.8554160445398, 1124.2065605843056)"/><ellipse cx="565.9523999909094" cy="452.4894235949798" rx="112.63633477536939" ry="56.318167387684696" fill="hsla(137.94807627036442, 70%, 80%, 0.12124962235859735)" opacity="0.12124962235859735" filter="blur(43.971039088992065px)" transform="rotate(290.3173914535356, 565.9523999909094, 452.4894235949798)"/><circle cx="2643.3832681366425" cy="1280.3728413175415" r="42.43246139373675" fill="hsla(156.85140387053423, 70%, 80%, 0.3541951940032587)" opacity="0.3541951940032587" filter="blur(43.966010815635734px)" transform="rotate(329.6753229973153, 2643.3832681366425, 1280.3728413175415)"/><circle cx="702.3491813728614" cy="860.5780800250665" r="12.093520031276668" fill="hsla(277.7273171937587, 70%, 80%, 0.2576203127168407)" opacity="0.2576203127168407" filter="blur(48.41896100730615px)" transform="rotate(311.5903820868671, 702.3491813728614, 860.5780800250665)"/><rect x="2468.2465128982913" y="1610.7805043203075" width="109.17017724770338" height="109.17017724770338" rx="27.292544311925845" fill="hsla(21.628468904765658, 70%, 80%, 0.25669572756149794)" opacity="0.25669572756149794" filter="blur(40.48036843482311px)" transform="rotate(197.65191895941638, 2522.831601522143, 1665.3655929441593)"/><ellipse cx="2218.2512359326684" cy="641.5582321472453" rx="100.43763325227728" ry="50.21881662613864" fill="hsla(44.10270737006284, 70%, 80%, 0.10974952631816834)" opacity="0.10974952631816834" filter="blur(15.153727745090034px)" transform="rotate(202.7079715631522, 2218.2512359326684, 641.5582321472453)"/><ellipse cx="958.2801860705596" cy="574.7121630841871" rx="64.41052871065165" ry="32.20526435532582" fill="hsla(341.31771106039156, 70%, 80%, 0.1676344442860357)" opacity="0.1676344442860357" filter="blur(34.06407485711915px)" transform="rotate(214.47542660572628, 958.2801860705596, 574.7121630841871)"/><ellipse cx="2460.737426961755" cy="185.7441873485449" rx="26.478555921328294" ry="13.239277960664147" fill="hsla(358.8664377630117, 70%, 80%, 0.18620119723571027)" opacity="0.18620119723571027" filter="blur(13.630336243449515px)" transform="rotate(188.18905374759998, 2460.737426961755, 185.7441873485449)"/><rect x="96.91864321510693" y="156.91462011126174" width="104.65690743609487" height="104.65690743609487" rx="26.164226859023717" fill="hsla(110.62109110484491, 70%, 80%, 0.24938369681278974)" opacity="0.24938369681278974" filter="blur(43.43753105139258px)" transform="rotate(173.3104568388563, 149.24709693315435, 209.24307382930917)"/><ellipse cx="2481.010342150883" cy="596.2139859462488" rx="132.6446862365931" ry="66.32234311829654" fill="hsla(105.8576929562782, 70%, 80%, 0.3789033414761902)" opacity="0.3789033414761902" filter="blur(48.083440497591454px)" transform="rotate(343.9223555508292, 2481.010342150883, 596.2139859462488)"/><ellipse cx="2733.577010945164" cy="1675.5910674793408" rx="36.473778986463486" ry="18.236889493231743" fill="hsla(74.70546822045904, 70%, 80%, 0.26726750179103376)" opacity="0.26726750179103376" filter="blur(6.38945761109278px)" transform="rotate(133.51384259286934, 2733.577010945164, 1675.5910674793408)"/><ellipse cx="1147.4720871873267" cy="1691.842654367054" rx="114.28965587139086" ry="57.14482793569543" fill="hsla(309.2732691656387, 70%, 80%, 0.1610354640843429)" opacity="0.1610354640843429" filter="blur(49.31758573579343px)" transform="rotate(137.29374960394975, 1147.4720871873267, 1691.842654367054)"/><circle cx="1080.273723649195" cy="232.6660624242902" r="41.950656445251084" fill="hsla(0.9198612580835963, 70%, 80%, 0.28170518484511703)" opacity="0.28170518484511703" filter="blur(1.5959645396311783px)" transform="rotate(65.79723002159616, 1080.273723649195, 232.6660624242902)"/><rect x="2039.3679095516447" y="358.81198676620687" width="35.21514586727947" height="35.21514586727947" rx="8.803786466819867" fill="hsla(124.39975733667615, 70%, 80%, 0.20296912867155953)" opacity="0.20296912867155953" filter="blur(26.50834104137143px)" transform="rotate(150.8944346973305, 2056.9754824852844, 376.4195596998466)"/><ellipse cx="2043.8695590182197" cy="849.6029643272672" rx="48.81933707645585" ry="24.409668538227926" fill="hsla(355.95717936494475, 70%, 80%, 0.1537879403091061)" opacity="0.1537879403091061" filter="blur(44.33497946874824px)" transform="rotate(356.3463812283204, 2043.8695590182197, 849.6029643272672)"/><rect x="155.49037592235484" y="1496.5611817616798" width="133.4368717895278" height="133.4368717895278" rx="33.35921794738195" fill="hsla(182.67230707500374, 70%, 80%, 0.17476086449959077)" opacity="0.17476086449959077" filter="blur(3.627814113290251px)" transform="rotate(355.5692512100168, 222.20881181711874, 1563.2796176564436)"/><circle cx="583.1781417625365" cy="944.8210849258011" r="68.19053573592271" fill="hsla(195.67914975888328, 70%, 80%, 0.2858802378470663)" opacity="0.2858802378470663" filter="blur(38.11618423651639px)" transform="rotate(213.90525777026147, 583.1781417625365, 944.8210849258011)"/><rect x="1448.964065583854" y="1305.8003831978967" width="74.44410251133353" height="74.44410251133353" rx="18.61102562783338" fill="hsla(232.88140823819288, 70%, 80%, 0.37949536357708613)" opacity="0.37949536357708613" filter="blur(35.61459526520224px)" transform="rotate(324.41605984986995, 1486.1861168395208, 1343.0224344535634)"/><rect x="1801.1207151449964" y="282.03103984458477" width="116.9869613120561" height="116.9869613120561" rx="29.246740328014024" fill="hsla(150.68724013089673, 70%, 80%, 0.22643728419596865)" opacity="0.22643728419596865" filter="blur(36.06862594238176px)" transform="rotate(47.533668843890396, 1859.6141958010244, 340.5245205006128)"/><ellipse cx="2858.490842142818" cy="1740.6239355609164" rx="149.99037994558918" ry="74.99518997279459" fill="hsla(212.84223383135256, 70%, 80%, 0.13851835080469704)" opacity="0.13851835080469704" filter="blur(26.867866544467862px)" transform="rotate(114.0313937931681, 2858.490842142818, 1740.6239355609164)"/><circle cx="945.7734678580894" cy="650.4778062749381" r="68.69017362780806" fill="hsla(202.15206129782274, 70%, 80%, 0.3598405211175908)" opacity="0.3598405211175908" filter="blur(46.04478859242443px)" transform="rotate(86.95879785748829, 945.7734678580894, 650.4778062749381)"/><circle cx="1863.4721816816302" cy="1717.2471331226857" r="22.740206135349144" fill="hsla(15.277689858629344, 70%, 80%, 0.32098306340518756)" opacity="0.32098306340518756" filter="blur(14.180805763040722px)" transform="rotate(313.71699022604986, 1863.4721816816302, 1717.2471331226857)"/><ellipse cx="802.721210979351" cy="1185.1524654992463" rx="72.42205239873513" ry="36.211026199367566" fill="hsla(161.97470074919812, 70%, 80%, 0.2910585468538744)" opacity="0.2910585468538744" filter="blur(33.117857862490965px)" transform="rotate(266.9287150969587, 802.721210979351, 1185.1524654992463)"/><circle cx="209.71512651370514" cy="472.036577362074" r="44.19954289033039" fill="hsla(3.890605375563303, 70%, 80%, 0.17904086314515916)" opacity="0.17904086314515916" filter="blur(19.208034091456415px)" transform="rotate(10.401978556810976, 209.71512651370514, 472.036577362074)"/><circle cx="2878.0753389752917" cy="1448.67771540054" r="63.572562979908255" fill="hsla(175.9774055872395, 70%, 80%, 0.26655806466339427)" opacity="0.26655806466339427" filter="blur(26.674839304470073px)" transform="rotate(316.74750815111486, 2878.0753389752917, 1448.67771540054)"/><rect x="1802.085081610443" y="1355.9454668307017" width="86.67552564953994" height="86.67552564953994" rx="21.668881412384984" fill="hsla(77.64713294524078, 70%, 80%, 0.2557948016661572)" opacity="0.2557948016661572" filter="blur(11.727422813930371px)" transform="rotate(39.49306976018508, 1845.422844435213, 1399.2832296554716)"/><ellipse cx="1040.9698390420692" cy="1584.548975070569" rx="36.343148558929535" ry="18.171574279464767" fill="hsla(252.40724819837303, 70%, 80%, 0.10143572026233695)" opacity="0.10143572026233695" filter="blur(41.14728280619137px)" transform="rotate(210.45153749424833, 1040.9698390420692, 1584.548975070569)"/><rect x="1872.202831021908" y="1274.1162211652459" width="83.73748144444309" height="83.73748144444309" rx="20.934370361110773" fill="hsla(176.74236462755488, 70%, 80%, 0.2510265935868336)" opacity="0.2510265935868336" filter="blur(14.871267860536037px)" transform="rotate(130.63992370563363, 1914.0715717441294, 1315.9849618874673)"/><rect x="681.4421609919427" y="605.5344608311717" width="76.89685705469982" height="76.89685705469982" rx="19.224214263674956" fill="hsla(292.3859450907872, 70%, 80%, 0.18557084654944922)" opacity="0.18557084654944922" filter="blur(42.367023955509175px)" transform="rotate(307.49847207306385, 719.8905895192927, 643.9828893585217)"/><circle cx="522.6686066245394" cy="553.0657696974621" r="62.84757244531929" fill="hsla(329.12395478696055, 70%, 80%, 0.3501538673592173)" opacity="0.3501538673592173" filter="blur(40.87538635471181px)" transform="rotate(69.35259116907807, 522.6686066245394, 553.0657696974621)"/><circle cx="1632.7222127603316" cy="1681.1528703857502" r="26.867605306690237" fill="hsla(158.1649148451651, 70%, 80%, 0.21883192318745937)" opacity="0.21883192318745937" filter="blur(25.767473563568593px)" transform="rotate(231.87185527658752, 1632.7222127603316, 1681.1528703857502)"/><circle cx="1831.0071102221668" cy="308.0047263033071" r="30.486860431762878" fill="hsla(50.08651808969209, 70%, 80%, 0.2309813764649164)" opacity="0.2309813764649164" filter="blur(9.420389578142425px)" transform="rotate(161.9298804622883, 1831.0071102221668, 308.0047263033071)"/><ellipse cx="367.20223463352573" cy="756.3422907803857" rx="73.07399144853485" ry="36.53699572426743" fill="hsla(246.7756557148204, 70%, 80%, 0.3284534159487873)" opacity="0.3284534159487873" filter="blur(32.105293510892864px)" transform="rotate(155.14280417801035, 367.20223463352573, 756.3422907803857)"/><circle cx="2779.978278476297" cy="1787.5950313126343" r="36.57577326415178" fill="hsla(254.71060977325072, 70%, 80%, 0.16203279909941828)" opacity="0.16203279909941828" filter="blur(34.50305574324628px)" transform="rotate(83.02303075941839, 2779.978278476297, 1787.5950313126343)"/><rect x="686.9416761732069" y="264.1277764947394" width="55.5487116120987" height="55.5487116120987" rx="13.887177903024675" fill="hsla(332.39933408438293, 70%, 80%, 0.29023860313373595)" opacity="0.29023860313373595" filter="blur(2.4266620409133965px)" transform="rotate(178.59028754084645, 714.7160319792563, 291.90213230078876)"/><ellipse cx="1430.9505334645232" cy="1377.877970568154" rx="114.40698542426959" ry="57.203492712134796" fill="hsla(229.56397867859823, 70%, 80%, 0.2836996000471313)" opacity="0.2836996000471313" filter="blur(37.45565437626152px)" transform="rotate(71.16787720087613, 1430.9505334645232, 1377.877970568154)"/><ellipse cx="965.5237441808525" cy="1089.6762735719892" rx="88.06349024706581" ry="44.03174512353291" fill="hsla(159.50672152191947, 70%, 80%, 0.3556391476953913)" opacity="0.3556391476953913" filter="blur(20.698964705293587px)" transform="rotate(248.7495541199169, 965.5237441808525, 1089.6762735719892)"/><circle cx="992.4353133968065" cy="1671.2031526665783" r="26.286956251219614" fill="hsla(36.024722221698795, 70%, 80%, 0.19290291676642635)" opacity="0.19290291676642635" filter="blur(30.144991590091486px)" transform="rotate(45.914035627033115, 992.4353133968065, 1671.2031526665783)"/><rect x="2393.0068117537994" y="1488.6182123677286" width="63.322902060034146" height="63.322902060034146" rx="15.830725515008536" fill="hsla(111.75384244440653, 70%, 80%, 0.23674967491324692)" opacity="0.23674967491324692" filter="blur(11.177116662847004px)" transform="rotate(331.56836708589606, 2424.6682627838163, 1520.2796633977457)"/><ellipse cx="63.424747888527264" cy="1337.604275364249" rx="126.88223730686657" ry="63.441118653433286" fill="hsla(133.10081195592807, 70%, 80%, 0.10634204315356924)" opacity="0.10634204315356924" filter="blur(42.321293163313165px)" transform="rotate(82.62475313497727, 63.424747888527264, 1337.604275364249)"/><ellipse cx="2288.4954840886558" cy="1361.6690791954204" rx="55.05762167392045" ry="27.528810836960226" fill="hsla(10.090163013174553, 70%, 80%, 0.39653068219851695)" opacity="0.39653068219851695" filter="blur(7.02035913006096px)" transform="rotate(139.30101182557632, 2288.4954840886558, 1361.6690791954204)"/><circle cx="2255.888281096131" cy="1000.5330825613041" r="47.54161793506006" fill="hsla(286.4653911523035, 70%, 80%, 0.1060276701344342)" opacity="0.1060276701344342" filter="blur(1.1247740198481238px)" transform="rotate(226.01758332208826, 2255.888281096131, 1000.5330825613041)"/><circle cx="2502.0130633694625" cy="741.6169239654749" r="30.53981630814887" fill="hsla(43.25612028511695, 70%, 80%, 0.3600614427390558)" opacity="0.3600614427390558" filter="blur(3.187616560768891px)" transform="rotate(94.77648140379482, 2502.0130633694625, 741.6169239654749)"/><ellipse cx="1976.0506725846055" cy="1326.6132087141762" rx="124.64974808184952" ry="62.32487404092476" fill="hsla(70.03818056315203, 70%, 80%, 0.14788177720786747)" opacity="0.14788177720786747" filter="blur(36.2012728590894px)" transform="rotate(179.37546816055698, 1976.0506725846055, 1326.6132087141762)"/><rect x="2162.141276068863" y="488.71226806934186" width="114.48674030198852" height="114.48674030198852" rx="28.62168507549713" fill="hsla(53.51063388589501, 70%, 80%, 0.3174499708011362)" opacity="0.3174499708011362" filter="blur(17.79531713184491px)" transform="rotate(109.18958264137648, 2219.3846462198576, 545.9556382203361)"/><circle cx="155.25220871614738" cy="66.44015813786382" r="31.60000823794906" fill="hsla(358.0325017196368, 70%, 80%, 0.3193293730636161)" opacity="0.3193293730636161" filter="blur(40.513270719139506px)" transform="rotate(163.03695841876964, 155.25220871614738, 66.44015813786382)"/><rect x="1391.556019510524" y="1658.6215329937386" width="85.8707607528911" height="85.8707607528911" rx="21.467690188222775" fill="hsla(243.675619539446, 70%, 80%, 0.2684762815714978)" opacity="0.2684762815714978" filter="blur(28.701462902985565px)" transform="rotate(347.06018931289003, 1434.4913998869697, 1701.5569133701842)"/><ellipse cx="2141.2280541200794" cy="693.3333757879374" rx="72.76789238298605" ry="36.383946191493024" fill="hsla(259.3868539726556, 70%, 80%, 0.17223974040790577)" opacity="0.17223974040790577" filter="blur(36.15797637317553px)" transform="rotate(174.68129797145394, 2141.2280541200794, 693.3333757879374)"/><ellipse cx="611.4121363702349" cy="1460.0945820118059" rx="126.78680415257635" ry="63.393402076288176" fill="hsla(141.89649316190855, 70%, 80%, 0.32594860209327037)" opacity="0.32594860209327037" filter="blur(9.5716278272081px)" transform="rotate(352.7934957125782, 611.4121363702349, 1460.0945820118059)"/><rect x="2706.7305024408543" y="1067.9567651329658" width="110.21620074450396" height="110.21620074450396" rx="27.55405018612599" fill="hsla(354.12233366910567, 70%, 80%, 0.30899677567437256)" opacity="0.30899677567437256" filter="blur(35.592359348554766px)" transform="rotate(320.1365518178048, 2761.8386028131063, 1123.0648655052178)"/><rect x="1036.6939577950948" y="94.37466362484983" width="143.45038099986698" height="143.45038099986698" rx="35.862595249966745" fill="hsla(190.46558058014054, 70%, 80%, 0.28367685613392035)" opacity="0.28367685613392035" filter="blur(20.658322180171673px)" transform="rotate(215.3163594348251, 1108.4191482950282, 166.09985412478332)"/><ellipse cx="116.33780939685366" cy="324.7390551637215" rx="96.36776220732916" ry="48.18388110366458" fill="hsla(77.78538149194506, 70%, 80%, 0.24867793263773372)" opacity="0.24867793263773372" filter="blur(29.313437286679537px)" transform="rotate(323.13084074213975, 116.33780939685366, 324.7390551637215)"/><ellipse cx="1682.066687643021" cy="35.9755953184516" rx="37.67137935754987" ry="18.835689678774933" fill="hsla(310.8423329968328, 70%, 80%, 0.10328659153313259)" opacity="0.10328659153313259" filter="blur(19.596873126442016px)" transform="rotate(197.83404653405353, 1682.066687643021, 35.9755953184516)"/><circle cx="947.4262517623102" cy="1534.9558244442662" r="42.41384024654147" fill="hsla(10.414086982519827, 70%, 80%, 0.24039263418658804)" opacity="0.24039263418658804" filter="blur(2.7312911725125733px)" transform="rotate(12.189538189344367, 947.4262517623102, 1534.9558244442662)"/><text x="50%" y="50%" dominant-baseline="middle" text-anchor="middle" fill="#fafafa" font-size="128" font-family="'Maple Mono CN', monospace" opacity="0.9" font-weight="bold" filter="url(#shadow)"><tspan x="50%" dy="0">PageOS</tspan></text></svg>